<?xml version="1.0" standalone="no"?>
<!DOCTYPE svg PUBLIC "-//W3C//DTD SVG 20010904//EN"
 "http://www.w3.org/TR/2001/REC-SVG-20010904/DTD/svg10.dtd">
<svg version="1.0" xmlns="http://www.w3.org/2000/svg"
 width="2388.000000pt" height="2387.000000pt" viewBox="0 0 2388.000000 2387.000000"
 preserveAspectRatio="xMidYMid meet">

<g transform="translate(0.000000,2387.000000) scale(0.100000,-0.100000)"
fill="#000000" stroke="none">
<path d="M9038 22133 l-1678 -3 -2 -338 -3 -337 -1072 -3 -1073 -2 0 -564 c0
-505 -2 -564 -16 -570 -9 -3 -353 -6 -765 -6 l-749 0 0 -633 c0 -479 -3 -636
-12 -645 -9 -9 -210 -12 -845 -12 l-833 0 0 -1123 c0 -860 -3 -1126 -12 -1135
-9 -9 -157 -12 -605 -12 l-593 0 0 -1780 0 -1780 -54 0 -53 0 -5 -777 c-3
-428 -3 -1229 0 -1780 l5 -1003 83 0 84 0 0 -1780 0 -1780 699 0 c628 0 699
-2 705 -16 3 -9 6 -411 6 -895 l0 -879 703 0 c533 0 706 -3 715 -12 9 -9 12
-219 12 -885 l0 -873 1144 0 c629 0 1151 -3 1160 -6 14 -5 16 -43 16 -320 l0
-314 664 0 c365 0 671 -3 680 -6 14 -5 16 -46 16 -354 l0 -349 1918 -3 c1054
-2 2710 -2 3680 0 l1762 3 0 299 0 298 23 6 c12 3 374 6 805 6 l782 0 0 358
c0 265 3 361 12 370 9 9 253 12 1035 12 l1023 0 0 758 c0 576 3 761 12 770 9
9 206 12 825 12 l813 0 2 1008 3 1007 698 3 697 2 0 1749 c0 962 3 1763 6
1780 l7 31 92 0 93 0 4 1033 c2 567 2 1368 0 1780 l-3 747 -48 0 c-48 0 -48 0
-55 38 -3 20 -6 821 -6 1779 l0 1743 -592 2 -593 3 -3 1253 -2 1252 -959 0
c-528 0 -966 3 -975 6 -14 5 -16 61 -16 525 l0 519 -647 2 -648 3 -3 603 -2
602 -1174 0 c-646 0 -1181 3 -1190 6 -14 5 -16 42 -16 310 l0 304 -2002 -2
c-1102 -2 -2758 -4 -3680 -5z m2178 -7574 c370 -36 676 -121 965 -270 401
-207 681 -581 781 -1043 19 -86 22 -132 22 -316 0 -195 -2 -227 -27 -340 -34
-162 -93 -333 -167 -488 -252 -524 -579 -812 -1205 -1060 -139 -56 -640 -233
-698 -247 -22 -6 -26 -14 -32 -58 -225 -1775 -677 -2590 -1530 -2764 -122 -25
-455 -24 -600 0 -115 20 -313 66 -336 78 -20 10 -84 175 -115 297 -76 299 -40
544 136 926 43 94 30 87 195 106 195 22 376 5 471 -43 111 -56 150 -148 121
-282 -20 -91 -63 -185 -112 -242 -48 -57 -137 -98 -265 -123 -136 -27 -184
-50 -222 -109 -42 -67 -44 -84 -15 -149 14 -31 30 -74 37 -94 6 -21 26 -49 43
-64 31 -26 33 -26 142 -21 229 11 342 55 471 182 128 126 232 305 332 575 127
339 199 638 411 1693 192 956 278 1316 405 1701 132 398 294 730 455 931 56
70 174 186 241 237 114 87 333 178 428 178 24 0 24 -1 17 -57 -14 -115 -77
-332 -234 -800 -171 -510 -228 -698 -285 -944 -52 -226 -106 -561 -106 -664 0
-24 3 -25 56 -25 82 0 246 36 349 77 171 68 290 149 430 295 282 291 444 734
462 1258 14 427 -82 734 -305 970 -266 284 -631 414 -1157 414 -343 0 -648
-50 -1005 -166 -472 -152 -962 -439 -1216 -712 -100 -107 -177 -223 -274 -414
-76 -150 -130 -231 -185 -274 l-25 -20 -20 44 c-175 396 113 867 775 1268 489
295 1149 506 1755 559 141 12 511 13 636 0z m-6993 -720 c79 -14 198 -54 280
-96 314 -157 569 -367 654 -540 36 -73 38 -82 38 -173 0 -91 -2 -100 -37 -171
-70 -142 -240 -283 -488 -403 -155 -76 -368 -149 -499 -171 -113 -20 -137 -10
-70 30 194 115 468 280 504 305 73 51 137 122 169 190 77 163 11 354 -175 510
-122 101 -256 168 -434 216 -136 38 -286 40 -360 6 -63 -29 -91 -55 -120 -112
-36 -71 -49 -156 -42 -288 10 -222 84 -515 307 -1216 214 -676 286 -932 350
-1246 67 -333 75 -405 75 -695 -1 -246 -2 -266 -27 -371 -65 -276 -168 -438
-393 -619 -211 -169 -468 -312 -693 -384 -288 -93 -530 -96 -752 -10 -238 91
-460 339 -564 629 -61 168 -74 360 -36 520 68 283 301 528 565 595 208 53 381
-35 454 -230 27 -71 44 -214 36 -293 l-7 -63 -78 -39 c-191 -96 -271 -101
-495 -32 -71 23 -132 38 -135 36 -3 -3 -7 -61 -9 -130 -4 -151 14 -241 69
-352 91 -181 255 -312 460 -368 101 -28 293 -26 390 4 114 36 196 86 282 172
135 137 204 316 215 565 6 147 -5 264 -43 435 -54 244 -129 443 -377 1001
-189 426 -263 607 -325 794 -111 334 -153 637 -119 861 42 270 172 531 370
740 300 317 683 459 1060 393z m11729 -687 c16 -16 31 -254 25 -402 -15 -348
-75 -607 -307 -1315 -125 -381 -178 -559 -229 -760 -65 -259 -110 -568 -111
-770 -2 -234 1 -341 9 -354 8 -12 19 -10 68 9 401 158 572 354 727 827 118
364 161 659 122 844 -15 69 -58 164 -106 234 -35 51 -60 110 -60 141 0 30 93
93 235 161 305 144 467 67 538 -255 19 -87 22 -128 22 -390 0 -160 3 -292 6
-292 10 0 143 142 201 215 31 39 107 149 171 245 119 181 189 260 266 300 66
33 183 59 301 66 l108 7 16 -70 c40 -178 31 -307 -37 -548 -39 -138 -42 -159
-42 -270 0 -91 4 -133 18 -172 10 -29 22 -53 27 -53 16 0 129 92 200 162 91
92 199 235 297 397 276 454 359 564 513 680 151 113 315 174 515 190 118 9
354 -2 385 -19 19 -10 89 -180 119 -290 69 -252 67 -589 -4 -863 -116 -445
-382 -855 -692 -1065 -228 -154 -451 -188 -639 -97 -146 71 -217 164 -325 422
-72 173 -113 253 -155 303 l-25 29 -103 -78 c-123 -94 -225 -146 -326 -167
-91 -19 -147 -12 -228 26 -102 48 -175 135 -287 340 -31 58 -62 111 -68 118
-8 10 -51 -68 -177 -315 -207 -409 -306 -581 -453 -788 -91 -129 -243 -281
-317 -317 -103 -49 -157 -46 -340 21 -67 24 -101 31 -161 31 -140 0 -228 -41
-392 -182 -39 -33 -91 -70 -115 -80 -60 -27 -140 -21 -215 16 -67 32 -212 143
-282 215 -27 28 -54 51 -61 51 -6 0 -31 -25 -54 -55 -79 -102 -194 -201 -287
-247 -85 -42 -89 -43 -187 -43 -95 0 -106 2 -170 34 -122 60 -297 254 -372
414 -10 20 -21 36 -25 35 -3 -2 -56 -64 -117 -139 -139 -170 -305 -331 -406
-393 -42 -27 -116 -63 -164 -80 -79 -27 -98 -30 -207 -30 -140 0 -230 21 -360
84 -127 61 -236 179 -301 326 -84 191 -100 497 -38 772 171 763 735 1319 1271
1253 151 -19 156 -21 181 -93 122 -352 54 -656 -230 -1020 -24 -31 -114 -136
-199 -233 -185 -212 -249 -297 -295 -390 -60 -123 -71 -270 -21 -296 12 -6 32
-20 44 -31 19 -18 27 -19 100 -8 179 25 285 78 403 200 163 168 291 394 541
955 195 439 298 617 433 749 166 162 297 233 606 333 113 36 244 85 291 110
217 110 328 308 375 668 20 148 14 615 -10 825 -9 74 -16 144 -16 155 0 20 4
21 288 17 158 -2 290 -7 294 -10z m-8460 -852 c55 -16 119 -69 156 -130 73
-122 109 -308 119 -606 l6 -195 45 43 c61 59 142 160 247 308 183 255 311 341
562 372 73 9 96 9 105 0 8 -8 14 -65 16 -175 3 -144 1 -176 -22 -289 -14 -70
-46 -192 -71 -270 -104 -331 -145 -470 -169 -587 -27 -127 -55 -366 -43 -377
9 -9 204 86 274 134 93 63 162 145 227 270 85 162 118 186 279 199 l78 6 -26
-59 c-147 -333 -536 -747 -850 -904 -239 -120 -398 -96 -483 70 -78 154 -82
435 -13 810 11 58 18 107 16 108 -5 6 -63 -86 -165 -263 -299 -518 -556 -800
-865 -950 -133 -66 -237 -94 -371 -102 -234 -14 -525 80 -731 234 l-74 56 -27
-24 c-14 -13 -65 -60 -113 -104 -168 -156 -267 -196 -497 -203 -83 -2 -163 -1
-176 2 -20 5 -29 22 -55 103 -64 196 -75 276 -76 518 0 192 3 235 23 335 108
535 437 1007 844 1210 338 169 647 132 901 -108 65 -63 67 -73 41 -199 -62
-301 -222 -390 -472 -264 -80 40 -208 137 -264 199 -34 39 -53 52 -73 52 -32
0 -34 -2 -130 -145 -142 -213 -261 -488 -305 -705 -23 -111 -27 -297 -9 -382
14 -64 58 -178 69 -178 20 0 128 100 184 172 35 43 110 158 169 256 58 97 130
207 160 243 105 126 238 190 405 192 l87 2 -1 -170 c0 -134 -5 -193 -22 -278
-26 -128 -28 -192 -7 -272 17 -65 103 -235 122 -242 6 -3 44 12 82 32 130 69
239 209 321 412 75 187 233 772 275 1019 l16 91 -101 273 c-55 149 -100 278
-100 285 0 16 119 92 204 131 112 51 201 65 278 44z"/>
<path d="M19328 11493 c-237 -316 -366 -618 -408 -958 -19 -152 -12 -539 9
-574 9 -14 135 10 181 34 99 51 262 293 406 602 72 156 95 242 101 373 6 136
-14 235 -73 360 -38 82 -136 250 -145 250 -3 0 -35 -39 -71 -87z"/>
<path d="M14867 11070 c-81 -47 -217 -152 -268 -206 -154 -164 -276 -405 -334
-658 -41 -183 -69 -529 -58 -721 l6 -90 85 28 c47 15 100 36 118 47 87 54 167
228 262 570 118 423 266 1026 260 1056 -2 11 -22 3 -71 -26z"/>
<path d="M12957 10857 c-34 -39 -77 -106 -112 -176 -57 -114 -126 -225 -167
-271 -42 -47 -52 -74 -56 -156 -5 -87 5 -118 37 -127 24 -6 105 32 147 70 43
38 162 261 184 344 7 24 21 62 32 83 14 26 23 73 28 136 5 52 12 110 15 128 7
31 6 32 -23 32 -24 0 -40 -12 -85 -63z"/>
</g>
</svg>
